PathFileType	4	(X/Y/Z)	Kaydara																																																																																																																																																																																																																												
DataRate	CameraRate	NumFrames	NumMarkers	Units	OrigDataRate	OrigDataStartFrame	OrigNumFrames																																																																																																																																																																																																																								
60	60	4	74	mm	60	750	211																																																																																																																																																																																																																								
Frame#	Time	N_lasi			N_rasi			N_rpsi			N_lpsi			N_fneck			N_bneck			N_fhead			N_rhead			N_lhead			N_rshld			N_relbtop			N_relbext			N_relblow			N_rwrext			N_rwrtop			N_rwrlow			N_lshld			N_lelblow			N_lelbtop			N_lwrext			N_lwrtop			N_lwrlow			N_rtopleg			N_ltopleg			N_rkneefr			N_rkneebk			N_rkneeis			N_lkneefr			N_lknssbk			N_lkneeis			N_rankfr			N_rankis			N_rankbk			N_lankfr			N_lankbk			N_lankis			D_lasi			D_rasi			D_lpsi			D_fneck			D_bneck			D_fhead			D_rhead			D_lhead			D_rshld			D_relbtop			D_relbext			D_relblow			D_rwrext			D_rwrtop			D_rwrlow			D_lshld			D_lelbext			D_lelblow			D_lelbtop			D_lwrext			D_lwrtop			D_lwrlow			D_rtopleg			D_ltopleg			D_rkneefr			D_rkneebk			D_rkneeis			D_lkneefr			D_lknssbk			D_lkneeis			D_rankfr			D_rankis			D_rankbk			D_lankfr			D_lankbk			D_lankis			D_rpsi			N_lelbext		
		X1	Y1	Z1	X2	Y2	Z2	X3	Y3	Z3	X4	Y4	Z4	X5	Y5	Z5	X6	Y6	Z6	X7	Y7	Z7	X8	Y8	Z8	X9	Y9	Z9	X10	Y10	Z10	X11	Y11	Z11	X12	Y12	Z12	X13	Y13	Z13	X14	Y14	Z14	X15	Y15	Z15	X16	Y16	Z16	X17	Y17	Z17	X18	Y18	Z18	X19	Y19	Z19	X20	Y20	Z20	X21	Y21	Z21	X22	Y22	Z22	X23	Y23	Z23	X24	Y24	Z24	X25	Y25	Z25	X26	Y26	Z26	X27	Y27	Z27	X28	Y28	Z28	X29	Y29	Z29	X30	Y30	Z30	X31	Y31	Z31	X32	Y32	Z32	X33	Y33	Z33	X34	Y34	Z34	X35	Y35	Z35	X36	Y36	Z36	X37	Y37	Z37	X38	Y38	Z38	X39	Y39	Z39	X40	Y40	Z40	X41	Y41	Z41	X42	Y42	Z42	X43	Y43	Z43	X44	Y44	Z44	X45	Y45	Z45	X46	Y46	Z46	X47	Y47	Z47	X48	Y48	Z48	X49	Y49	Z49	X50	Y50	Z50	X51	Y51	Z51	X52	Y52	Z52	X53	Y53	Z53	X54	Y54	Z54	X55	Y55	Z55	X56	Y56	Z56	X57	Y57	Z57	X58	Y58	Z58	X59	Y59	Z59	X60	Y60	Z60	X61	Y61	Z61	X62	Y62	Z62	X63	Y63	Z63	X64	Y64	Z64	X65	Y65	Z65	X66	Y66	Z66	X67	Y67	Z67	X68	Y68	Z68	X69	Y69	Z69	X70	Y70	Z70	X71	Y71	Z71	X72	Y72	Z72	X73	Y73	Z73	X74	Y74	Z74
																																																																																																																																																																																																																															
80	12.483	-528.04066	1233.85246	-43.81091	-524.73385	1247.47505	-276.6255	-257.23972	1227.37221	-338.62064	-264.13467	1218.37845	13.30753	-392.54105	1601.38718	-144.24035	-254.4298	1662.1933	-151.5679	-436.28719	1814.84833	-134.79531	-255.96676	1762.3381	-210.1659	-290.65748	1766.05194	-57.45423	-276.46849	1637.22214	-349.28268	-226.38172	1553.4465	-624.72538	-316.09102	1546.93863	-618.3279	-255.2076	1626.52603	-581.72398	-373.37303	1867.82104	-650.08377	-373.18275	1857.76367	-602.29664	-408.41267	1823.79135	-593.3086	-247.11504	1611.87119	23.34185	-236.94199	1618.78754	295.90622	-199.3364	1538.2016	303.36067	-154.968	1601.85898	612.12326	-190.12131	1631.88644	625.04337	-226.2727	1590.34348	625.12413	-433.79608	1048.32588	-414.92393	-360.64648	1012.32422	65.93577	-438.29762	561.27285	-242.9571	-334.85588	579.64451	-314.69511	-371.93321	563.60394	-152.13835	-379.50188	539.3166	-85.10508	-251.66098	554.78683	-30.74232	-260.30022	547.42657	-180.57709	-300.04122	140.39432	-266.0849	-299.3049	154.06293	-185.86695	-218.73514	142.58497	-213.95102	-331.31142	192.49218	-112.53945	-256.67761	184.87303	-72.81989	-292.67761	163.87303	-156.81989	-456.94378	1037.03896	1723.28674	-419.6888	1060.0988	1436.98746	-256.02724	1128.98933	1727.16873	-414.97562	1562.55875	1570.99747	-276.78869	1592.58209	1578.92288	-451.0009	1777.22198	1568.79272	-288.29865	1730.22171	1495.6842	-299.85106	1730.19821	1650.67535	-346.7487	1495.15961	1367.30423	-246.86964	1170.13092	1362.26135	-281.37829	1152.8038	1422.30209	-325.9277	1175.85159	1326.01471	-301.79846	922.69798	1345.58914	-352.64278	923.32336	1317.82333	-375.117	939.85306	1364.43161	-325.60055	1568.28705	1767.15897	-433.62728	1495.07919	2024.10004	-346.17779	1554.73831	2017.39563	-356.17569	1478.23547	2039.00574	-408.5836	1569.68048	2272.02606	-436.44028	1600.29556	2258.23883	-477.75776	1573.53775	2245.7872	-332.47871	1005.81802	1400.24506	-315.52364	1008.52547	1788.74939	-372.81151	456.91616	1440.34668	-273.3633	490.89897	1409.8735	-278.77874	461.45817	1531.79581	-365.55595	452.65366	1761.34537	-252.08786	485.42492	1774.99176	-325.80482	442.12269	1670.20233	-323.96866	129.84345	1416.28403	-294.17711	127.69792	1480.12451	-243.83209	127.20548	1414.82132	-324.73167	134.1575	1789.2067	-251.52506	125.6708	1803.24921	-295.44182	122.6164	1730.2681	-225.44371	1144.53568	1509.9617	-291.69626	1533.56415	320.34134
81	12.5	-528.32291	1233.66264	-43.97259	-524.97643	1247.54906	-276.79581	-257.47446	1227.42493	-338.70548	-264.41402	1218.36723	13.27778	-393.09837	1601.13297	-142.89238	-255.02045	1661.9693	-150.34958	-436.43764	1814.97406	-134.50811	-255.96909	1762.1756	-209.93345	-291.19879	1765.86609	-56.92151	-276.604	1637.3613	-348.98293	-226.58117	1554.13101	-624.61102	-316.27798	1547.70355	-618.14396	-255.50192	1627.32941	-581.72005	-373.40237	1868.69461	-649.57222	-373.04443	1858.59207	-601.85322	-408.26023	1824.66492	-592.61391	-247.66731	1611.84265	23.43257	-237.80117	1619.0155	296.03231	-199.97198	1538.54324	303.48183	-155.70008	1601.88644	611.85646	-191.10157	1632.00607	625.16197	-227.20007	1590.36896	625.41054	-434.04789	1048.39951	-415.19272	-360.89077	1012.22939	65.69231	-438.2806	561.27083	-243.07657	-334.75567	579.65889	-314.81054	-372.0232	563.62251	-152.21115	-379.6608	539.32564	-85.14128	-251.75743	554.85748	-30.76075	-260.35086	547.43942	-180.5493	-300.01978	140.39608	-266.09179	-299.28467	154.06859	-185.88215	-218.57273	142.6834	-214.07133	-331.2764	192.5033	-112.5896	-256.78577	184.88342	-72.7447	-292.78577	163.88342	-156.7447	-456.64288	1036.73004	1723.31268	-419.83616	1060.06355	1436.9751	-256.26762	1128.9859	1727.14249	-415.21347	1562.612	1571.0025	-277.02984	1592.54578	1578.79883	-451.14326	1777.28073	1568.64853	-288.47408	1730.12817	1495.62912	-299.93942	1730.22156	1650.43884	-346.86031	1495.07172	1367.30301	-247.10861	1170.10117	1362.4733	-281.60875	1152.74559	1422.49741	-326.14967	1175.7653	1326.19339	-301.97323	922.61055	1345.60928	-352.89101	923.26645	1317.8862	-375.25963	939.75967	1364.55002	-325.83199	1568.1163	1767.29752	-433.34991	1493.18512	2024.19586	-346.74419	1553.66821	2017.91473	-355.74551	1477.05322	2038.93417	-409.19941	1567.84943	2272.22046	-437.35268	1598.18649	2258.21899	-478.4013	1571.1824	2245.73776	-332.47871	1005.81802	1400.24506	-315.58575	1008.52386	1788.88031	-372.8688	456.85299	1440.46127	-273.43843	490.89165	1409.97604	-278.80688	461.46572	1531.86478	-365.53444	452.63447	1761.43875	-252.06297	485.43282	1775.06424	-325.80196	442.0932	1670.31601	-324.03061	129.83706	1416.23978	-294.16861	127.69485	1480.14053	-243.85662	127.19933	1414.92035	-324.70497	134.15685	1789.26712	-251.54881	125.66119	1803.2756	-295.41597	122.6338	1730.28549	-225.56931	1144.51805	1509.97452	-292.2168	1533.5553	320.35625
82	12.517	-528.57269	1233.59314	-44.13239	-525.18578	1247.61765	-276.94931	-257.71814	1227.48024	-338.77293	-264.74365	1218.38234	13.23514	-393.23647	1600.96741	-142.85852	-255.19186	1661.83426	-150.44535	-436.68724	1814.98886	-134.36569	-256.26312	1762.27173	-209.62946	-291.48458	1765.79163	-56.74625	-276.64295	1637.50214	-348.75587	-226.82142	1554.82056	-624.43958	-316.54827	1548.45001	-617.83092	-255.85835	1628.12607	-581.623	-373.44925	1869.5076	-649.0564	-373.04405	1859.46457	-601.3496	-408.23997	1825.53894	-592.04754	-248.02483	1611.81778	23.51779	-238.61195	1619.25934	296.12259	-200.97496	1538.71399	303.74765	-157.00693	1602.05475	612.59624	-192.0499	1631.978	625.33031	-228.19275	1590.30365	625.59864	-434.30271	1048.41843	-415.31895	-361.19884	1012.2805	65.58476	-438.21873	561.26263	-243.24194	-334.65122	579.69795	-314.89843	-372.05666	563.58997	-152.3263	-379.76295	539.33571	-85.21558	-251.93895	554.8748	-30.68417	-260.34698	547.4762	-180.49717	-299.95808	140.40204	-266.12661	-299.29789	154.09433	-185.92381	-218.49915	142.74173	-214.09107	-331.40137	192.52674	-112.51191	-256.86874	184.89408	-72.64692	-292.86874	163.89408	-156.64692	-457.05036	1036.99417	1723.55026	-420.09735	1059.78561	1437.75604	-256.29833	1128.99757	1727.20978	-415.4002	1562.59659	1570.94635	-277.17625	1592.53235	1578.64807	-451.3044	1777.31308	1568.47336	-288.67664	1730.02533	1495.52902	-300.04553	1730.15991	1650.18616	-347.05914	1494.97818	1367.32086	-247.29939	1170.03799	1362.72354	-281.7779	1152.67929	1422.69745	-326.29723	1175.69565	1326.34323	-302.10337	922.49832	1345.63416	-353.13988	923.18184	1317.99622	-375.37067	939.67545	1364.73648	-326.11885	1567.94312	1767.51373	-433.0407	1490.96344	2024.24347	-347.12715	1552.3645	2017.86743	-355.27992	1475.53696	2038.7381	-409.69242	1565.31143	2272.31735	-438.11012	1595.40527	2258.52783	-478.87699	1568.18924	2246.02371	-332.47871	1005.81802	1400.24506	-315.66687	1008.51982	1789.03763	-372.97764	456.74431	1440.70236	-273.51141	490.86918	1410.19196	-278.7878	461.49193	1532.01523	-365.49599	452.64786	1761.6098	-252.05889	485.44086	1775.16327	-325.79842	442.13123	1670.40161	-324.15123	129.87027	1416.02875	-294.14627	127.69156	1480.19379	-243.89282	127.22006	1414.90555	-324.66908	134.16028	1789.36859	-251.5003	125.68238	1803.30246	-295.40823	122.63583	1730.33112	-225.69042	1144.49684	1510.00427	-293.06952	1533.89221	320.36308
83	12.533	-528.84712	1233.66669	-44.33906	-525.3857	1247.66296	-277.17495	-257.90386	1227.5415	-338.88317	-265.08682	1218.44444	13.16598	-393.77792	1601.57501	-142.73802	-255.76662	1662.47223	-150.45446	-437.06608	1814.88174	-134.30621	-256.54854	1762.37747	-209.32671	-291.76174	1765.8284	-56.66433	-276.69436	1637.724	-348.48419	-227.07897	1555.37354	-624.30996	-316.8726	1549.09393	-617.6487	-256.25038	1628.80325	-581.61224	-373.40374	1870.26962	-648.40439	-372.85961	1859.98917	-600.52261	-408.27705	1826.2619	-591.50444	-248.3742	1611.84875	23.57341	-239.26115	1619.15939	296.09186	-201.89653	1538.55026	303.84947	-158.29329	1602.28638	612.73361	-193.56554	1632.11441	625.32631	-229.41462	1590.46753	625.57564	-434.4912	1048.41118	-415.4084	-361.50032	1012.27531	65.45861	-438.18569	561.24622	-243.3905	-334.55616	579.71565	-314.98453	-372.17548	563.62026	-152.41154	-379.84127	539.32079	-85.23973	-252.10398	554.91142	-30.65999	-260.38847	547.53002	-180.45752	-299.92867	140.39468	-266.14641	-299.29525	154.1012	-185.92669	-218.43887	142.79375	-214.11066	-331.42265	192.52604	-112.48528	-256.94361	184.93113	-72.54769	-292.94361	163.93113	-156.54769	-456.85402	1036.79939	1723.5704	-420.23647	1059.67766	1437.84821	-256.44356	1129.03152	1727.25235	-415.66856	1562.565	1570.85648	-277.37465	1592.52823	1578.66898	-451.46545	1777.35092	1568.25516	-288.88926	1729.89075	1494.21494	-300.17981	1730.10941	1649.96429	-347.29424	1494.83414	1367.29523	-247.47812	1169.99771	1362.9332	-281.92854	1152.61726	1422.88239	-326.41972	1175.61188	1326.50391	-302.22145	922.42981	1345.76996	-353.23658	923.10814	1318.10898	-375.47855	939.60716	1364.83597	-326.53225	1567.55844	1767.78503	-432.71976	1488.41507	2024.13086	-347.32792	1550.83282	2018.255	-354.89109	1473.41293	2038.76862	-410.45174	1561.9223	2272.35977	-439.03931	1592.06039	2258.90671	-479.55521	1564.32175	2246.05423	-332.47871	1005.81802	1400.24506	-315.71646	1008.54538	1789.1571	-373.04264	456.71257	1440.73166	-273.55999	490.88284	1410.30731	-278.88977	461.43742	1532.10663	-365.43945	452.61921	1761.68488	-252.01975	485.47791	1775.25833	-325.7431	442.1286	1670.448	-324.17549	129.87119	1416.07712	-294.17273	127.70215	1480.17426	-243.88069	127.20571	1414.95926	-324.66187	134.18098	1789.34052	-251.52319	125.65411	1803.34595	-295.41306	122.66285	1730.32944	-225.8102	1144.48936	1510.09079	-294.27992	1534.23813	320.17784
